<svg width="55" height="58" viewBox="0 0 55 58" fill="none" xmlns="http://www.w3.org/2000/svg">
<path d="M39.3333 0.875C42.4526 0.875 45.0079 3.28864 45.2338 6.3501L45.25 6.79167V21.5833L49.6875 21.5833C51.994 21.5833 53.8897 23.3433 54.1047 25.5935L54.125 26.0208L54.125 48.2083C54.125 52.9349 50.4304 56.7983 45.7715 57.0683L45.25 57.0833L6.79167 57.0833C3.67251 57.0833 1.11709 54.6698 0.891229 51.6082L0.875 51.1667L0.875 6.79167C0.875 3.67251 3.28864 1.11709 6.3501 0.891229L6.79167 0.875L39.3333 0.875ZM48.2083 27.5H45.25L45.25 51.1667C46.8839 51.1667 48.2083 49.8422 48.2083 48.2083L48.2083 27.5ZM39.3333 6.79167L6.79167 6.79167L6.79167 51.1667L39.3333 51.1667L39.3333 6.79167ZM24.5417 30.4583C26.1756 30.4583 27.5 31.7828 27.5 33.4167C27.5 34.9338 26.358 36.1842 24.8867 36.3551L24.5417 36.375H15.6667C14.0328 36.375 12.7083 35.0506 12.7083 33.4167C12.7083 31.8995 13.8504 30.6491 15.3217 30.4782L15.6667 30.4583L24.5417 30.4583ZM30.4583 15.6667C32.0922 15.6667 33.4167 16.9912 33.4167 18.625C33.4167 20.2588 32.0922 21.5833 30.4583 21.5833L15.6667 21.5833C14.0328 21.5833 12.7083 20.2588 12.7083 18.625C12.7083 16.9912 14.0328 15.6667 15.6667 15.6667L30.4583 15.6667Z" fill="black"/>
</svg>
