<svg width="58" height="58" viewBox="0 0 58 58" fill="none" xmlns="http://www.w3.org/2000/svg">
<path d="M42.3327 0.875C47.0593 0.875 50.9227 4.56973 51.1926 9.22853L51.2077 9.75V39.3333H53.4264C55.3412 39.3333 56.9159 40.7883 57.1053 42.6531L57.1244 43.0313V48.2083C57.1244 52.9349 53.4298 56.7983 48.7708 57.0683L48.2494 57.0833H18.666C13.9396 57.0833 10.076 53.3887 9.80608 48.7298L9.79102 48.2083V18.625H4.61393C2.69926 18.625 1.12448 17.1699 0.935107 15.3052L0.916016 14.9271L0.916016 9.75C0.916016 5.02354 4.61075 1.16 9.26954 0.890066L9.79102 0.875L42.3327 0.875ZM42.3327 6.79167L15.7077 6.79167L15.7077 48.2083C15.7077 49.8422 17.0322 51.1667 18.666 51.1667C20.2998 51.1667 21.6244 49.8422 21.6244 48.2083V43.0313C21.6244 40.9888 23.28 39.3333 25.3223 39.3333H45.291V9.75C45.291 8.11617 43.9666 6.79167 42.3327 6.79167ZM51.2077 45.25H27.541V48.2083C27.541 49.2455 27.3629 50.2413 27.036 51.1667H48.2494C49.8832 51.1667 51.2077 49.8422 51.2077 48.2083V45.25ZM30.4994 27.5C32.1332 27.5 33.4577 28.8244 33.4577 30.4583C33.4577 32.0922 32.1332 33.4167 30.4994 33.4167H24.5827C22.9489 33.4167 21.6244 32.0922 21.6244 30.4583C21.6244 28.8244 22.9489 27.5 24.5827 27.5H30.4994ZM36.416 15.6667C38.0499 15.6667 39.3744 16.9912 39.3744 18.625C39.3744 20.2588 38.0499 21.5833 36.416 21.5833L24.5827 21.5833C22.9489 21.5833 21.6244 20.2588 21.6244 18.625C21.6244 16.9912 22.9489 15.6667 24.5827 15.6667H36.416ZM9.79102 6.79167C8.27389 6.79167 7.02348 7.93372 6.85259 9.405L6.83268 9.75V12.7083H9.79102V6.79167Z" fill="black"/>
</svg>
