<svg width="804" height="814" viewBox="0 0 804 814" fill="none" xmlns="http://www.w3.org/2000/svg">
<g clip-path="url(#clip0_998_1532)">
<path d="M793.578 839.627L781.715 835.12C786.001 823.838 791.725 814.713 799.191 807.247C806.657 799.781 815.782 794.057 827.064 789.771L831.571 801.633C821.866 805.311 814.427 809.956 808.15 816.206C801.873 822.483 797.255 829.921 793.578 839.627Z" fill="#3E6585"/>
<path d="M746.376 839.018L734.098 835.756C735.122 831.94 736.034 828.096 736.947 824.225C741.454 805.338 746.099 785.816 761.916 769.999C777.733 754.183 797.255 749.537 816.141 745.03C819.985 744.117 823.856 743.205 827.672 742.182L830.935 754.459C827.009 755.51 823.054 756.45 819.1 757.39C801.154 761.676 784.176 765.713 770.903 778.986C757.63 792.259 753.593 809.21 749.307 827.183C748.367 831.138 747.427 835.092 746.376 839.018Z" fill="#3E6585"/>
<path d="M689.496 841.646L680.094 833.129C691.819 820.188 695.662 804.067 699.727 787.006C704.234 768.119 708.88 748.597 724.697 732.78C740.513 716.964 760.036 712.318 778.922 707.811C795.983 703.746 812.104 699.902 825.045 688.178L833.562 697.58C818.215 711.488 799.716 715.885 781.853 720.144C763.907 724.43 746.929 728.467 733.656 741.74C720.383 755.013 716.346 771.963 712.06 789.937C707.801 807.8 703.405 826.271 689.496 841.646Z" fill="#3E6585"/>
<path d="M561.745 843L555.772 831.774C567.551 825.524 580.327 822.455 592.687 819.524C610.633 815.238 627.611 811.201 640.884 797.928C654.157 784.655 658.194 767.704 662.48 749.731C666.987 730.844 671.633 711.322 687.45 695.505C703.267 679.688 722.789 675.043 741.675 670.536C759.621 666.25 776.599 662.212 789.872 648.94C803.145 635.667 807.182 618.716 811.468 600.742C814.427 588.382 817.469 575.607 823.718 563.827L834.945 569.8C829.442 580.142 826.705 591.59 823.829 603.701C819.322 622.587 814.676 642.11 798.859 657.926C783.042 673.743 763.52 678.389 744.634 682.896C726.688 687.182 709.71 691.219 696.437 704.492C683.164 717.765 679.127 734.716 674.841 752.689C670.333 771.576 665.688 791.098 649.871 806.915C634.054 822.732 614.532 827.377 595.646 831.884C583.534 834.76 572.086 837.498 561.745 843Z" fill="#3E6585"/>
<path d="M495.629 839.626L483.766 835.119C488.052 823.837 493.749 814.712 501.242 807.246C517.059 791.429 536.581 786.783 555.467 782.276C573.414 777.99 590.392 773.953 603.665 760.68C616.938 747.407 620.975 730.456 625.261 712.483C629.768 693.596 634.414 674.074 650.23 658.257C666.047 642.441 685.57 637.795 704.456 633.288C722.402 629.002 739.38 624.965 752.653 611.692C765.926 598.419 769.963 581.468 774.249 563.494C778.756 544.608 783.402 525.086 799.219 509.269C806.685 501.803 815.81 496.079 827.092 491.793L831.599 503.656C821.893 507.334 814.455 511.979 808.205 518.228C794.933 531.501 790.895 548.452 786.609 566.426C782.102 585.312 777.457 604.834 761.64 620.651C745.823 636.468 726.301 641.113 707.414 645.62C689.468 649.907 672.49 653.944 659.217 667.217C645.944 680.49 641.907 697.44 637.621 715.414C633.114 734.3 628.468 753.822 612.652 769.639C596.835 785.456 577.312 790.101 558.426 794.609C540.48 798.895 523.502 802.932 510.229 816.205C503.952 822.482 499.307 829.92 495.629 839.626Z" fill="#3E6585"/>
<path d="M448.455 839.018L436.177 835.755C437.2 831.939 438.113 828.095 439.025 824.252C443.533 805.366 448.178 785.843 463.995 770.027C479.812 754.21 499.334 749.564 518.22 745.057C536.166 740.771 553.145 736.734 566.418 723.461C579.69 710.188 583.728 693.237 588.014 675.264C592.521 656.377 597.166 636.855 612.983 621.038C628.8 605.221 648.322 600.576 667.209 596.069C685.155 591.783 702.133 587.746 715.406 574.473C728.679 561.2 732.716 544.249 737.002 526.275C741.509 507.389 746.155 487.867 761.971 472.05C777.788 456.233 797.311 451.588 816.197 447.081C820.04 446.168 823.912 445.256 827.728 444.232L830.991 456.51C827.064 457.561 823.11 458.501 819.155 459.441C801.209 463.727 784.231 467.764 770.958 481.037C757.685 494.31 753.648 511.26 749.362 529.234C744.855 548.12 740.209 567.643 724.393 583.459C708.576 599.276 689.053 603.922 670.167 608.429C652.221 612.715 635.243 616.752 621.97 630.025C608.697 643.298 604.66 660.249 600.374 678.222C595.867 697.109 591.221 716.631 575.404 732.448C559.588 748.265 540.065 752.91 521.179 757.417C503.233 761.703 486.255 765.741 472.982 779.013C459.709 792.286 455.672 809.237 451.386 827.211C450.418 831.137 449.478 835.091 448.455 839.018Z" fill="#3E6585"/>
<path d="M391.547 841.644L382.145 833.128C393.87 820.187 397.713 804.066 401.778 787.004C406.285 768.118 410.931 748.596 426.748 732.779C442.565 716.962 462.087 712.317 480.973 707.809C498.919 703.523 515.897 699.486 529.17 686.213C542.443 672.94 546.48 655.99 550.766 638.016C555.274 619.13 559.919 599.608 575.736 583.791C591.553 567.974 611.075 563.328 629.961 558.821C647.907 554.535 664.885 550.498 678.158 537.225C691.431 523.952 695.468 507.002 699.754 489.028C704.262 470.142 708.907 450.62 724.724 434.803C740.541 418.986 760.063 414.34 778.949 409.833C796.011 405.768 812.132 401.925 825.073 390.2L833.589 399.602C818.243 413.511 799.744 417.935 781.881 422.193C763.934 426.479 746.956 430.517 733.683 443.79C720.41 457.062 716.373 474.013 712.087 491.987C707.58 510.873 702.934 530.395 687.118 546.212C671.301 562.029 651.779 566.674 632.892 571.182C614.946 575.468 597.968 579.505 584.695 592.778C571.422 606.051 567.385 623.001 563.099 640.975C558.592 659.861 553.946 679.383 538.129 695.2C522.313 711.017 502.79 715.663 483.904 720.17C465.958 724.456 448.98 728.493 435.707 741.766C422.434 755.039 418.397 771.989 414.111 789.963C409.88 807.799 405.483 826.27 391.547 841.644Z" fill="#3E6585"/>
<path d="M263.796 843L257.823 831.774C269.603 825.524 282.378 822.455 294.738 819.524C312.684 815.238 329.662 811.201 342.935 797.928C356.208 784.655 360.245 767.704 364.531 749.73C369.039 730.844 373.684 711.322 389.501 695.505C405.318 679.688 424.84 675.043 443.726 670.536C461.672 666.25 478.651 662.212 491.924 648.939C505.196 635.667 509.234 618.716 513.52 600.742C518.027 581.856 522.672 562.334 538.489 546.517C554.306 530.7 573.828 526.055 592.715 521.547C610.661 517.261 627.639 513.224 640.912 499.951C654.185 486.678 658.222 469.728 662.508 451.754C667.015 432.868 671.661 413.346 687.477 397.529C703.294 381.712 722.817 377.066 741.703 372.559C759.649 368.273 776.627 364.236 789.9 350.963C803.173 337.69 807.21 320.74 811.496 302.766C814.455 290.406 817.496 277.63 823.746 265.823L834.972 271.796C829.47 282.138 826.732 293.585 823.856 305.697C819.349 324.583 814.704 344.105 798.887 359.922C783.07 375.739 763.548 380.385 744.662 384.892C726.715 389.178 709.737 393.215 696.464 406.488C683.191 419.761 679.154 436.711 674.868 454.685C670.361 473.571 665.715 493.094 649.899 508.91C634.082 524.727 614.559 529.373 595.673 533.88C577.727 538.166 560.749 542.203 547.476 555.476C534.203 568.749 530.166 585.7 525.88 603.673C521.373 622.56 516.727 642.082 500.91 657.899C485.094 673.716 465.571 678.361 446.685 682.868C428.739 687.154 411.761 691.191 398.488 704.464C385.215 717.737 381.178 734.688 376.892 752.662C372.385 771.548 367.739 791.07 351.922 806.887C336.105 822.704 316.583 827.349 297.697 831.856C285.585 834.76 274.137 837.497 263.796 843Z" fill="#3E6585"/>
<path d="M197.707 839.626L185.845 835.119C190.131 823.837 195.855 814.712 203.321 807.246C219.138 791.429 238.66 786.784 257.546 782.276C275.492 777.99 292.47 773.953 305.743 760.68C319.016 747.407 323.053 730.457 327.339 712.483C331.847 693.597 336.492 674.075 352.309 658.258C368.126 642.441 387.648 637.795 406.534 633.288C424.48 629.002 441.459 624.965 454.731 611.692C468.004 598.419 472.042 581.469 476.328 563.495C480.835 544.609 485.48 525.086 501.297 509.27C517.114 493.453 536.636 488.807 555.522 484.3C573.469 480.014 590.447 475.977 603.72 462.704C616.993 449.431 621.03 432.48 625.316 414.507C629.823 395.62 634.469 376.098 650.285 360.281C666.102 344.464 685.624 339.819 704.511 335.312C722.457 331.026 739.435 326.988 752.708 313.716C765.981 300.443 770.018 283.492 774.304 265.518C778.811 246.632 783.457 227.11 799.274 211.293C806.74 203.827 815.865 198.103 827.147 193.817L831.654 205.68C821.948 209.357 814.51 214.003 808.233 220.252C794.96 233.525 790.923 250.476 786.637 268.449C782.129 287.336 777.484 306.858 761.667 322.675C745.85 338.492 726.328 343.137 707.442 347.644C689.496 351.93 672.517 355.968 659.245 369.241C645.972 382.513 641.935 399.464 637.648 417.438C633.141 436.324 628.496 455.846 612.679 471.663C596.862 487.48 577.34 492.125 558.454 496.633C540.508 500.919 523.529 504.956 510.256 518.229C496.983 531.502 492.946 548.452 488.66 566.426C484.153 585.312 479.508 604.834 463.691 620.651C447.874 636.468 428.352 641.114 409.465 645.621C391.519 649.907 374.541 653.944 361.268 667.217C347.995 680.49 343.958 697.44 339.672 715.414C335.165 734.3 330.519 753.823 314.702 769.639C298.886 785.456 279.363 790.102 260.477 794.609C242.531 798.895 225.553 802.932 212.28 816.205C206.003 822.482 201.385 829.92 197.707 839.626Z" fill="#3E6585"/>
<path d="M150.506 839.018L138.229 835.755C139.252 831.939 140.164 828.096 141.077 824.252C145.584 805.366 150.23 785.844 166.046 769.999C181.863 754.182 201.386 749.537 220.272 745.03C238.218 740.743 255.196 736.706 268.469 723.433C281.742 710.161 285.779 693.21 290.065 675.236C294.572 656.35 299.218 636.828 315.035 621.011C330.852 605.194 350.374 600.549 369.26 596.041C387.206 591.755 404.184 587.718 417.457 574.445C430.73 561.172 434.767 544.222 439.053 526.248C443.56 507.362 448.206 487.84 464.023 472.023C479.84 456.206 499.362 451.56 518.248 447.053C536.194 442.767 553.172 438.73 566.445 425.457C579.718 412.184 583.755 395.234 588.041 377.26C592.549 358.374 597.194 338.851 613.011 323.034C628.828 307.218 648.35 302.572 667.236 298.065C685.182 293.779 702.161 289.742 715.434 276.469C728.706 263.196 732.744 246.245 737.03 228.272C741.537 209.385 746.182 189.863 761.999 174.046C777.816 158.229 797.338 153.584 816.225 149.077C820.068 148.164 823.939 147.252 827.755 146.229L831.018 158.506C827.092 159.557 823.138 160.497 819.183 161.437C801.237 165.723 784.259 169.76 770.986 183.033C757.713 196.306 753.676 213.257 749.39 231.23C744.883 250.117 740.237 269.639 724.42 285.456C708.604 301.272 689.081 305.918 670.195 310.425C652.249 314.711 635.271 318.748 621.998 332.021C608.725 345.294 604.688 362.245 600.402 380.219C595.895 399.105 591.249 418.627 575.432 434.444C559.615 450.261 540.093 454.906 521.207 459.413C503.261 463.699 486.283 467.737 473.01 481.01C459.737 494.282 455.7 511.233 451.414 529.207C446.906 548.093 442.261 567.615 426.444 583.432C410.627 599.249 391.105 603.894 372.219 608.402C354.273 612.688 337.294 616.725 324.022 629.998C310.749 643.271 306.711 660.221 302.425 678.195C297.918 697.081 293.273 716.603 277.456 732.42C261.639 748.237 242.117 752.883 223.231 757.39C205.284 761.676 188.306 765.713 175.033 778.986C161.76 792.259 157.723 809.237 153.437 827.183C152.497 831.137 151.557 835.092 150.506 839.018Z" fill="#3E6585"/>
<path d="M93.6262 841.645L84.2246 833.128C95.949 820.187 99.7926 804.066 103.857 787.005C108.365 768.118 113.01 748.596 128.827 732.779C144.644 716.963 164.166 712.317 183.052 707.81C200.998 703.524 217.977 699.487 231.25 686.214C244.522 672.941 248.56 655.99 252.846 638.016C257.353 619.13 261.998 599.608 277.815 583.791C293.632 567.974 313.154 563.329 332.041 558.822C349.987 554.535 366.965 550.498 380.238 537.225C393.511 523.953 397.548 507.002 401.834 489.028C406.341 470.142 410.987 450.62 426.803 434.803C442.62 418.986 462.143 414.341 481.029 409.833C498.975 405.547 515.953 401.51 529.226 388.237C542.499 374.964 546.536 358.014 550.822 340.04C555.329 321.154 559.975 301.632 575.792 285.815C591.609 269.998 611.131 265.352 630.017 260.845C647.963 256.559 664.941 252.522 678.214 239.249C691.487 225.976 695.524 209.026 699.81 191.052C704.318 172.166 708.963 152.643 724.78 136.827C740.597 121.01 760.119 116.364 779.005 111.857C796.066 107.792 812.187 103.949 825.128 92.2241L833.645 101.626C818.298 115.535 799.799 119.931 781.936 124.19C763.99 128.476 747.012 132.513 733.739 145.786C720.466 159.059 716.429 176.009 712.143 193.983C707.636 212.869 702.99 232.391 687.173 248.208C671.356 264.025 651.834 268.671 632.948 273.178C615.002 277.464 598.024 281.501 584.751 294.774C571.478 308.047 567.441 324.997 563.155 342.971C558.647 361.857 554.002 381.38 538.185 397.196C522.368 413.013 502.846 417.659 483.96 422.166C466.014 426.452 449.036 430.489 435.763 443.762C422.49 457.035 418.453 473.986 414.167 491.959C409.659 510.846 405.014 530.368 389.197 546.185C373.38 562.001 353.858 566.647 334.972 571.154C317.026 575.44 300.047 579.477 286.774 592.75C273.502 606.023 269.464 622.974 265.178 640.948C260.671 659.834 256.026 679.356 240.209 695.173C224.392 710.99 204.87 715.635 185.983 720.142C168.037 724.429 151.059 728.466 137.786 741.739C124.513 755.011 120.476 771.962 116.19 789.908C111.932 807.799 107.535 826.27 93.6262 841.645Z" fill="#3E6585"/>
<path d="M-11.7553 834.732L-15.0182 822.455C-11.0916 821.404 -7.13741 820.464 -3.18319 819.524C14.7629 815.238 31.7411 811.201 45.014 797.928C58.2869 784.655 62.3241 767.704 66.6101 749.73C71.1173 730.844 75.7629 711.322 91.5797 695.505C107.397 679.688 126.919 675.043 145.805 670.536C163.751 666.25 180.729 662.212 194.002 648.939C207.275 635.667 211.312 618.716 215.598 600.742C220.106 581.856 224.751 562.334 240.568 546.517C256.385 530.7 275.907 526.055 294.793 521.547C312.739 517.261 329.718 513.224 342.99 499.951C356.263 486.678 360.3 469.728 364.587 451.754C369.094 432.868 373.739 413.346 389.556 397.529C405.373 381.712 424.895 377.066 443.781 372.559C461.727 368.273 478.706 364.236 491.979 350.963C505.252 337.69 509.289 320.74 513.575 302.766C518.082 283.88 522.728 264.357 538.544 248.54C554.361 232.724 573.883 228.078 592.77 223.571C610.716 219.285 627.694 215.248 640.967 201.975C654.24 188.702 658.277 171.751 662.563 153.778C667.07 134.891 671.716 115.369 687.533 99.5523C703.349 83.7354 722.872 79.0899 741.758 74.5826C759.704 70.2966 776.682 66.2594 789.955 52.9865C803.228 39.7136 807.265 22.7631 811.551 4.78934C812.491 0.835125 813.432 -3.11909 814.482 -7.04565L826.76 -3.78273C825.737 0.0332219 824.824 3.87683 823.911 7.74809C819.404 26.6343 814.759 46.1565 798.942 61.9734C783.125 77.7903 763.603 82.4358 744.717 86.943C726.743 91.2291 709.792 95.2662 696.519 108.539C683.247 121.812 679.209 138.763 674.923 156.736C670.416 175.623 665.771 195.145 649.954 210.962C634.137 226.778 614.615 231.424 595.728 235.931C577.782 240.217 560.804 244.254 547.531 257.527C534.258 270.8 530.221 287.751 525.935 305.725C521.428 324.611 516.782 344.133 500.965 359.95C485.149 375.767 465.626 380.412 446.74 384.919C428.794 389.206 411.816 393.243 398.543 406.516C385.27 419.789 381.233 436.739 376.947 454.713C372.44 473.599 367.794 493.121 351.977 508.938C336.16 524.755 316.638 529.4 297.752 533.908C279.806 538.194 262.828 542.231 249.555 555.504C236.282 568.777 232.245 585.727 227.959 603.701C223.451 622.587 218.806 642.109 202.989 657.926C187.172 673.743 167.65 678.389 148.764 682.896C130.818 687.182 113.839 691.219 100.567 704.492C87.2937 717.765 83.2565 734.716 78.9705 752.689C74.4632 771.575 69.8177 791.098 54.0008 806.915C38.184 822.731 18.6618 827.377 -0.224445 831.884C-4.0957 832.797 -7.93931 833.709 -11.7553 834.732Z" fill="#3E6585"/>
<path d="M-11.1469 787.144L-15.6542 775.282C-5.94837 771.604 1.48998 766.958 7.76695 760.709C21.0398 747.436 25.077 730.486 29.363 712.512C33.8703 693.626 38.5158 674.103 54.3327 658.287C70.1495 642.47 89.6718 637.824 108.558 633.317C126.504 629.031 143.482 624.994 156.755 611.721C170.028 598.448 174.065 581.497 178.351 563.524C182.859 544.637 187.504 525.115 203.321 509.298C219.138 493.482 238.66 488.836 257.546 484.329C275.492 480.043 292.47 476.006 305.743 462.733C319.016 449.46 323.053 432.509 327.339 414.535C331.847 395.649 336.492 376.127 352.309 360.31C368.126 344.493 387.648 339.848 406.534 335.341C424.48 331.055 441.459 327.017 454.732 313.744C468.004 300.472 472.042 283.521 476.328 265.547C480.835 246.661 485.48 227.139 501.297 211.322C517.114 195.505 536.636 190.86 555.523 186.352C573.469 182.066 590.447 178.029 603.72 164.756C616.993 151.483 621.03 134.533 625.316 116.559C629.823 97.6728 634.469 78.1506 650.285 62.3338C666.102 46.5169 685.625 41.8714 704.511 37.3641C722.457 33.0781 739.435 29.0409 752.708 15.768C758.985 9.49107 763.603 2.05273 767.281 -7.65308L779.143 -3.14582C774.857 8.13613 769.161 17.2612 761.667 24.7272C745.85 40.5441 726.328 45.1896 707.442 49.6969C689.496 53.9829 672.518 58.0201 659.245 71.293C645.972 84.5659 641.935 101.516 637.649 119.49C633.141 138.376 628.496 157.899 612.679 173.715C596.862 189.532 577.34 194.178 558.454 198.685C540.508 202.971 523.529 207.008 510.256 220.281C496.984 233.554 492.946 250.505 488.66 268.478C484.153 287.365 479.508 306.887 463.691 322.704C447.874 338.521 428.352 343.166 409.465 347.673C391.519 351.959 374.541 355.997 361.268 369.269C347.995 382.542 343.958 399.493 339.672 417.467C335.165 436.353 330.519 455.875 314.703 471.692C298.886 487.509 279.363 492.154 260.477 496.661C242.531 500.948 225.553 504.985 212.28 518.258C199.007 531.53 194.97 548.481 190.684 566.455C186.177 585.341 181.531 604.863 165.714 620.68C149.897 636.497 130.375 641.142 111.489 645.65C93.543 649.936 76.5648 653.973 63.2919 667.246C50.019 680.519 45.9818 697.469 41.6958 715.443C37.1885 734.329 32.543 753.851 16.7261 769.668C9.2878 777.134 0.162687 782.858 -11.1469 787.144Z" fill="#3E6585"/>
<path d="M-7.77335 715.138L-19 709.165C-13.4973 698.823 -10.7597 687.375 -7.88395 675.264C-3.3767 656.378 1.26881 636.855 17.0857 621.039C32.9025 605.222 52.4247 600.576 71.311 596.069C89.257 591.783 106.235 587.746 119.508 574.473C132.781 561.2 136.818 544.249 141.104 526.276C145.612 507.389 150.257 487.867 166.074 472.05C181.891 456.233 201.413 451.588 220.299 447.081C238.245 442.795 255.223 438.757 268.496 425.485C281.769 412.212 285.806 395.261 290.092 377.287C294.6 358.401 299.245 338.879 315.062 323.062C330.879 307.245 350.401 302.6 369.287 298.092C387.233 293.806 404.212 289.769 417.485 276.496C430.757 263.223 434.795 246.273 439.081 228.299C443.588 209.413 448.233 189.891 464.05 174.074C479.867 158.257 499.389 153.612 518.276 149.104C536.222 144.818 553.2 140.781 566.473 127.508C579.746 114.235 583.783 97.2847 588.069 79.311C592.576 60.4247 597.222 40.9025 613.039 25.0857C628.855 9.26881 648.378 4.6233 667.264 0.116047C679.375 -2.75975 690.823 -5.49728 701.165 -11L707.138 0.226656C695.358 6.50363 682.583 9.54533 670.223 12.4764C652.277 16.7625 635.298 20.7996 622.025 34.0725C608.753 47.3454 604.715 64.296 600.429 82.2697C595.922 101.156 591.277 120.678 575.46 136.495C559.643 152.312 540.121 156.957 521.234 161.465C503.288 165.751 486.31 169.788 473.037 183.061C459.764 196.334 455.727 213.284 451.441 231.258C446.934 250.144 442.288 269.666 426.471 285.483C410.655 301.3 391.132 305.946 372.246 310.453C354.3 314.739 337.322 318.776 324.049 332.049C310.776 345.322 306.739 362.272 302.453 380.246C297.946 399.132 293.3 418.655 277.483 434.471C261.666 450.288 242.144 454.934 223.258 459.441C205.312 463.727 188.334 467.764 175.061 481.037C161.788 494.31 157.751 511.261 153.465 529.234C148.957 548.121 144.312 567.643 128.495 583.46C112.678 599.277 93.1559 603.922 74.2697 608.429C56.3237 612.715 39.3454 616.752 26.0725 630.025C12.7996 643.298 8.76246 660.249 4.47643 678.223C1.51768 690.555 -1.52403 703.358 -7.77335 715.138Z" fill="#3E6585"/>
<path d="M-9.12813 590.815L-17.6449 581.413C-2.27046 567.504 16.201 563.108 34.0641 558.822C52.0101 554.536 68.9884 550.498 82.2613 537.225C95.5342 523.953 99.5713 507.002 103.857 489.028C108.365 470.142 113.01 450.62 128.827 434.803C144.644 418.986 164.166 414.341 183.052 409.833C200.998 405.547 217.977 401.51 231.249 388.237C244.522 374.964 248.56 358.014 252.846 340.04C257.353 321.154 261.998 301.632 277.815 285.815C293.632 269.998 313.154 265.352 332.041 260.845C349.987 256.559 366.965 252.522 380.238 239.249C393.511 225.976 397.548 209.026 401.834 191.052C406.341 172.166 410.987 152.643 426.803 136.827C442.62 121.01 462.142 116.364 481.029 111.857C498.975 107.571 515.953 103.534 529.226 90.2609C542.499 76.988 546.536 60.0374 550.822 42.0637C555.08 24.2006 559.477 5.70152 573.386 -9.64526L582.788 -1.12849C571.063 11.8126 567.22 27.9336 563.155 44.9948C558.647 63.881 554.002 83.4032 538.185 99.2201C522.368 115.037 502.846 119.682 483.96 124.19C466.014 128.476 449.036 132.513 435.763 145.786C422.49 159.059 418.453 176.009 414.166 193.983C409.659 212.869 405.014 232.391 389.197 248.208C373.38 264.025 353.858 268.671 334.972 273.178C317.026 277.464 300.047 281.501 286.774 294.774C273.502 308.047 269.464 324.998 265.178 342.971C260.671 361.857 256.026 381.38 240.209 397.196C224.392 413.013 204.87 417.659 185.983 422.166C168.037 426.452 151.059 430.489 137.786 443.762C124.513 457.035 120.476 473.986 116.19 491.959C111.683 510.846 107.037 530.368 91.2205 546.185C75.4036 562.002 55.8814 566.647 36.9952 571.154C19.934 575.247 3.81294 579.09 -9.12813 590.815Z" fill="#3E6585"/>
<path d="M-11.7553 536.783L-15.0182 524.506C-11.0916 523.455 -7.13741 522.515 -3.18319 521.575C14.7629 517.289 31.7411 513.251 45.014 499.978C58.2869 486.706 62.3241 469.755 66.6101 451.781C71.1173 432.895 75.7629 413.373 91.5797 397.556C107.397 381.739 126.919 377.094 145.805 372.586C163.751 368.3 180.729 364.263 194.002 350.99C207.275 337.717 211.312 320.767 215.598 302.793C220.106 283.907 224.751 264.385 240.568 248.568C256.385 232.751 275.907 228.105 294.793 223.598C312.739 219.312 329.718 215.275 342.99 202.002C356.263 188.729 360.3 171.779 364.587 153.805C369.094 134.919 373.739 115.396 389.556 99.5796C405.373 83.7627 424.895 79.1172 443.781 74.61C461.727 70.3239 478.706 66.2868 491.979 53.0139C505.252 39.741 509.289 22.7904 513.575 4.81669C514.515 0.86247 515.455 -3.09175 516.506 -7.01831L528.783 -3.75539C527.76 0.060565 526.848 3.90417 525.935 7.77543C521.428 26.6617 516.782 46.1839 500.965 62.0007C485.149 77.8176 465.626 82.4631 446.74 86.9704C428.794 91.2564 411.816 95.2936 398.543 108.566C385.27 121.839 381.233 138.79 376.947 156.764C372.44 175.65 367.794 195.172 351.977 210.989C336.16 226.806 316.638 231.451 297.752 235.959C279.806 240.245 262.828 244.282 249.555 257.555C236.282 270.828 232.245 287.778 227.959 305.752C223.451 324.638 218.806 344.16 202.989 359.977C187.172 375.794 167.65 380.44 148.764 384.947C130.818 389.233 113.839 393.27 100.567 406.543C87.2937 419.816 83.2565 436.766 78.9705 454.74C74.4632 473.626 69.8177 493.148 54.0008 508.965C38.184 524.782 18.6618 529.428 -0.224445 533.935C-4.0957 534.847 -7.93931 535.788 -11.7553 536.783Z" fill="#3E6585"/>
<path d="M-11.1469 489.194L-15.6542 477.332C-5.94837 473.654 1.48998 469.008 7.76695 462.759C21.0398 449.486 25.077 432.536 29.3631 414.562C33.8703 395.676 38.5158 376.153 54.3327 360.337C70.1496 344.52 89.6718 339.874 108.558 335.367C126.504 331.081 143.482 327.044 156.755 313.771C170.028 300.498 174.065 283.547 178.351 265.574C182.859 246.687 187.504 227.165 203.321 211.348C219.138 195.531 238.66 190.886 257.546 186.379C275.492 182.093 292.471 178.056 305.743 164.783C319.016 151.51 323.053 134.559 327.34 116.585C331.847 97.6992 336.492 78.177 352.309 62.3601C368.126 46.5433 387.648 41.8978 406.534 37.3905C424.48 33.1045 441.459 29.0673 454.732 15.7944C460.981 9.54509 465.626 2.07909 469.304 -7.62671L481.167 -3.11946C476.881 8.1625 471.157 17.2876 463.691 24.7813C447.874 40.5981 428.352 45.2436 409.466 49.7509C391.519 54.0369 374.541 58.0741 361.268 71.347C347.995 84.6199 343.958 101.57 339.672 119.544C335.165 138.43 330.519 157.953 314.703 173.769C298.886 189.586 279.364 194.232 260.477 198.739C242.531 203.025 225.553 207.062 212.28 220.335C199.007 233.608 194.97 250.559 190.684 268.532C186.177 287.419 181.531 306.941 165.714 322.758C149.898 338.575 130.375 343.22 111.489 347.727C93.543 352.013 76.5648 356.051 63.2919 369.323C50.019 382.596 45.9818 399.547 41.6958 417.521C37.1885 436.407 32.543 455.929 16.7262 471.746C9.2878 479.212 0.16269 484.936 -11.1469 489.194Z" fill="#3E6585"/>
<path d="M-7.77335 417.189L-19 411.244C-13.4973 400.902 -10.7597 389.454 -7.88395 377.343C-3.3767 358.457 1.26881 338.934 17.0857 323.118C32.9025 307.301 52.4247 302.655 71.311 298.148C89.257 293.862 106.235 289.825 119.508 276.552C132.781 263.279 136.818 246.328 141.104 228.355C145.612 209.468 150.257 189.946 166.074 174.129C181.891 158.312 201.413 153.667 220.299 149.16C238.245 144.874 255.223 140.836 268.496 127.564C281.769 114.291 285.806 97.3401 290.092 79.3664C294.6 60.4802 299.245 40.958 315.062 25.1411C330.879 9.32423 350.401 4.67872 369.287 0.171468C381.399 -2.70432 392.847 -5.44186 403.189 -10.9446L409.161 0.282076C397.382 6.55905 384.607 9.60075 372.218 12.5318C354.272 16.8179 337.294 20.8551 324.021 34.128C310.748 47.4008 306.711 64.3514 302.425 82.3251C297.918 101.211 293.272 120.734 277.456 136.55C261.639 152.367 242.116 157.013 223.23 161.52C205.284 165.806 188.306 169.843 175.033 183.116C161.76 196.389 157.723 213.34 153.437 231.313C148.93 250.2 144.284 269.722 128.467 285.539C112.651 301.356 93.1283 306.001 74.2421 310.508C56.296 314.794 39.3178 318.831 26.0449 332.104C12.772 345.377 8.73481 362.328 4.44877 380.302C1.51768 392.634 -1.52403 405.409 -7.77335 417.189Z" fill="#3E6585"/>
<path d="M-9.12812 292.866L-17.6449 283.465C-2.29811 269.556 16.201 265.159 34.0641 260.873C52.0101 256.587 68.9884 252.55 82.2613 239.277C95.5342 226.004 99.5713 209.053 103.857 191.08C108.365 172.194 113.01 152.671 128.827 136.854C144.644 121.038 164.166 116.392 183.052 111.885C200.998 107.599 217.949 103.562 231.25 90.2887C244.522 77.0158 248.56 60.0653 252.846 42.0916C257.104 24.2284 261.501 5.72935 275.437 -9.61743L284.839 -1.10066C273.114 11.8404 269.271 27.9614 265.206 45.0226C260.699 63.9089 256.053 83.4311 240.236 99.2479C224.419 115.065 204.897 119.71 186.011 124.218C168.01 128.559 151.059 132.596 137.786 145.869C124.513 159.142 120.476 176.092 116.19 194.066C111.683 212.952 107.037 232.475 91.2205 248.291C75.4036 264.108 55.8814 268.754 36.9952 273.261C19.934 277.298 3.81295 281.142 -9.12812 292.866Z" fill="#3E6585"/>
<path d="M-11.7553 238.863L-15.0182 226.585C-11.0916 225.534 -7.13741 224.594 -3.18319 223.654C14.7629 219.368 31.7411 215.331 45.014 202.058C58.2869 188.785 62.3241 171.835 66.6101 153.861C71.1173 134.975 75.7629 115.452 91.5797 99.6355C107.397 83.8186 126.919 79.1731 145.805 74.6659C163.751 70.3798 180.729 66.3427 194.002 53.0698C207.275 39.7969 211.312 22.8186 215.598 4.87259C216.538 0.918378 217.479 -3.03584 218.529 -6.9624L230.807 -3.69948C229.756 0.144125 228.844 3.98773 227.931 7.83134C223.424 26.7176 218.778 46.2398 202.961 62.0566C187.145 77.8735 167.622 82.519 148.736 87.0263C130.79 91.3123 113.812 95.3495 100.539 108.622C87.266 121.895 83.2289 138.846 78.9428 156.82C74.4356 175.706 69.7901 195.228 53.9732 211.045C38.1563 226.862 18.6341 231.507 -0.252096 236.014C-4.0957 236.927 -7.93931 237.84 -11.7553 238.863Z" fill="#3E6585"/>
<path d="M-11.1469 191.274L-15.6542 179.411C-5.94837 175.733 1.48998 171.088 7.76695 164.839C21.0398 151.566 25.077 134.615 29.3631 116.641C33.8703 97.7551 38.5158 78.2329 54.3327 62.4161C70.1496 46.5992 89.6718 41.9537 108.558 37.4464C126.504 33.1604 143.482 29.1232 156.755 15.8503C163.005 9.57335 167.65 2.135 171.328 -7.5708L183.19 -3.06355C178.904 8.21841 173.208 17.3435 165.714 24.8095C149.898 40.6264 130.375 45.2719 111.489 49.7792C93.543 54.0652 76.5648 58.1024 63.2919 71.3753C50.019 84.6482 45.9818 101.599 41.6958 119.572C37.1885 138.459 32.543 157.981 16.7262 173.798C9.2878 181.264 0.16269 186.988 -11.1469 191.274Z" fill="#3E6585"/>
<path d="M-7.77335 119.268L-19 113.296C-13.4973 102.954 -10.7597 91.506 -7.88395 79.3945C-3.3767 60.5082 1.26881 40.986 17.0857 25.1692C32.9025 9.35231 52.4247 4.7068 71.311 0.199543C83.4225 -2.7039 94.8703 -5.41378 105.212 -10.9165L111.185 0.31015C99.4053 6.58712 86.6301 9.62883 74.2697 12.5599C56.3237 16.846 39.3454 20.8831 26.0725 34.156C12.7996 47.4289 8.76246 64.3795 4.47643 82.3532C1.51768 94.6859 -1.52403 107.489 -7.77335 119.268Z" fill="#3E6585"/>
</g>
<defs>
<clipPath id="clip0_998_1532">
<rect width="804" height="814" fill="white"/>
</clipPath>
</defs>
</svg>
