<svg width="31" height="34" viewBox="0 0 31 34" fill="none" xmlns="http://www.w3.org/2000/svg">
<path fill-rule="evenodd" clip-rule="evenodd" d="M23.3551 3.76491V1.20004C23.3551 0.537616 22.8222 0 22.1657 0C21.5092 0 20.9764 0.537616 20.9764 1.20004V6.421C20.9764 6.83701 21.2 7.18742 21.5203 7.40182C21.3316 7.52983 21.1176 7.62103 20.8733 7.62103C20.2168 7.62103 19.684 7.08342 19.684 6.421V2.95529C18.4123 2.80169 17.0263 2.72328 15.4992 2.72328C13.701 2.72328 12.0978 2.83209 10.6563 3.05129V1.20004C10.6563 0.537616 10.1235 0 9.46698 0C8.81048 0 8.27767 0.537616 8.27767 1.20004V6.421C8.27767 6.83701 8.50126 7.18742 8.82158 7.40182C8.63287 7.52983 8.4188 7.62103 8.17459 7.62103C7.51809 7.62103 6.98527 7.08342 6.98527 6.421V3.97292C3.60126 5.28976 1.61589 7.73944 0.677122 11.6404H30.3229C29.327 7.50263 27.126 5.01935 23.3551 3.76491Z" fill="white"/>
<path fill-rule="evenodd" clip-rule="evenodd" d="M22.4972 20.3388C21.8407 20.3388 21.3015 19.8012 21.3015 19.1387C21.3015 18.4763 21.8264 17.9387 22.4829 17.9387H22.4972C23.1537 17.9387 23.6865 18.4763 23.6865 19.1387C23.6865 19.8012 23.1537 20.3388 22.4972 20.3388ZM22.4972 26.5038C21.8407 26.5038 21.3015 25.9662 21.3015 25.3037C21.3015 24.6397 21.8264 24.1037 22.4829 24.1037H22.4972C23.1537 24.1037 23.6865 24.6397 23.6865 25.3037C23.6865 25.9662 23.1537 26.5038 22.4972 26.5038ZM15.5214 20.3388C14.8649 20.3388 14.3242 19.8012 14.3242 19.1387C14.3242 18.4763 14.8506 17.9387 15.5071 17.9387H15.5214C16.1779 17.9387 16.7107 18.4763 16.7107 19.1387C16.7107 19.8012 16.1779 20.3388 15.5214 20.3388ZM15.5214 26.5038C14.8649 26.5038 14.3242 25.9662 14.3242 25.3037C14.3242 24.6397 14.8506 24.1037 15.5071 24.1037H15.5214C16.1779 24.1037 16.7107 24.6397 16.7107 25.3037C16.7107 25.9662 16.1779 26.5038 15.5214 26.5038ZM8.53138 20.3388C7.87488 20.3388 7.33414 19.8012 7.33414 19.1387C7.33414 18.4763 7.86061 17.9387 8.51711 17.9387H8.53138C9.18789 17.9387 9.7207 18.4763 9.7207 19.1387C9.7207 19.8012 9.18789 20.3388 8.53138 20.3388ZM8.53138 26.5038C7.87488 26.5038 7.33414 25.9662 7.33414 25.3037C7.33414 24.6397 7.86061 24.1037 8.51711 24.1037H8.53138C9.18789 24.1037 9.7207 24.6397 9.7207 25.3037C9.7207 25.9662 9.18789 26.5038 8.53138 26.5038ZM30.7542 14.0394H0.245793C0.0840452 15.3514 0 16.7803 0 18.3627C0 29.9071 4.05637 34 15.4992 34C26.9436 34 31 29.9071 31 18.3627C31 16.7803 30.916 15.3514 30.7542 14.0394Z" fill="white"/>
</svg>
