<svg width="33" height="34" viewBox="0 0 33 34" fill="none" xmlns="http://www.w3.org/2000/svg">
<path fill-rule="evenodd" clip-rule="evenodd" d="M12.2351 5.07672C12.2351 3.65845 13.2343 2.50579 14.4611 2.50579H18.5394C19.7663 2.50579 20.7655 3.65845 20.7655 5.07672V5.11682C19.4638 4.98819 18.0466 4.92471 16.5003 4.92471C14.9522 4.92471 13.535 4.98819 12.2351 5.11682V5.07672ZM0.367328 14.9646C4.80075 17.6508 10.5443 19.1325 16.5343 19.1375C22.5123 19.1325 28.2406 17.6558 32.6706 14.9813C31.7734 9.53034 28.9441 6.63031 23.3144 5.50271V5.07672C23.3144 2.27692 21.1716 0 18.5394 0H14.4611C11.829 0 9.68617 2.27692 9.68617 5.07672V5.50271C4.06496 6.62864 1.23736 9.52032 0.333342 14.9512C0.345237 14.9579 0.357132 14.9579 0.367328 14.9646Z" fill="white"/>
<path fill-rule="evenodd" clip-rule="evenodd" d="M17.7745 21.7066V25.32C17.7745 26.0116 17.2035 26.5728 16.5 26.5728C15.7965 26.5728 15.2255 26.0116 15.2255 25.32V21.7049C9.68419 21.5229 4.38584 20.163 0.0407827 17.8093C0.0152935 18.3422 0 18.8901 0 19.4614C0 30.1962 4.31787 34 16.5 34C28.6821 34 33 30.1962 33 19.4614C33 18.9035 32.9864 18.3672 32.9626 17.8477C28.6108 20.1881 23.3124 21.5345 17.7745 21.7066Z" fill="white"/>
</svg>
