<svg width="32" height="35" viewBox="0 0 32 35" fill="none" xmlns="http://www.w3.org/2000/svg">
<path fill-rule="evenodd" clip-rule="evenodd" d="M22.4695 18.7339H9.47655C8.73153 18.7339 8.12687 18.1309 8.12687 17.3878C8.12687 16.6448 8.73153 16.0417 9.47655 16.0417H22.4695C23.2145 16.0417 23.8191 16.6448 23.8191 17.3878C23.8191 18.1309 23.2145 18.7339 22.4695 18.7339ZM22.4695 25.4805H9.47655C8.73153 25.4805 8.12687 24.8774 8.12687 24.1344C8.12687 23.3914 8.73153 22.7883 9.47655 22.7883H22.4695C23.2145 22.7883 23.8191 23.3914 23.8191 24.1344C23.8191 24.8774 23.2145 25.4805 22.4695 25.4805ZM9.47655 9.29158H14.4344C15.1794 9.29158 15.7841 9.89462 15.7841 10.6377C15.7841 11.3807 15.1794 11.9837 14.4344 11.9837H9.47655C8.73153 11.9837 8.12687 11.3807 8.12687 10.6377C8.12687 9.89462 8.73153 9.29158 9.47655 9.29158ZM16 0C4.18581 0 0 4.58028 0 17.5009C0 30.4197 4.18581 35 16 35C27.8124 35 32 30.4197 32 17.5009C32 4.58028 27.8124 0 16 0Z" fill="white"/>
</svg>
