<svg width="49" height="49" viewBox="0 0 49 49" fill="none" xmlns="http://www.w3.org/2000/svg">
<path d="M49 24.5C49 38.031 38.031 49 24.5 49C10.969 49 0 38.031 0 24.5C0 10.969 10.969 0 24.5 0C38.031 0 49 10.969 49 24.5Z" fill="#3E6585"/>
<path fill-rule="evenodd" clip-rule="evenodd" d="M24.5009 29.4335C17.8411 29.4335 12 33.7509 12 38.6703C12 45 21.4101 45 24.5009 45C27.5916 45 37 45 37 38.629C37 33.7302 31.1589 29.4335 24.5009 29.4335Z" fill="white"/>
<path fill-rule="evenodd" clip-rule="evenodd" d="M24.4354 25.3291H24.4881C29.0749 25.3291 32.8056 21.218 32.8056 16.1636C32.8056 11.1111 29.0749 7 24.4881 7C19.9014 7 16.1707 11.1111 16.1707 16.1598C16.1554 21.1974 19.8605 25.3103 24.4354 25.3291Z" fill="white"/>
</svg>
